<?xml version="1.0" standalone="no"?>
<!DOCTYPE svg PUBLIC "-//W3C//DTD SVG 20010904//EN"
 "http://www.w3.org/TR/2001/REC-SVG-20010904/DTD/svg10.dtd">
<svg version="1.0" xmlns="http://www.w3.org/2000/svg"
 width="256.000000pt" height="256.000000pt" viewBox="0 0 256.000000 256.000000"
 preserveAspectRatio="xMidYMid meet">

<g transform="translate(0.000000,256.000000) scale(0.100000,-0.100000)"
fill="#000000" stroke="none">
<path d="M2215 2474 l-250 -86 -750 -749 c-549 -548 -755 -748 -767 -744 -27
11 -70 -19 -152 -105 -67 -71 -77 -86 -73 -109 5 -24 -6 -39 -95 -127 -177
-175 -175 -215 24 -410 119 -117 157 -144 208 -144 54 0 93 26 194 128 88 89
103 100 127 95 23 -4 38 6 109 73 86 82 115 124 106 152 -4 13 86 109 339 362
190 190 345 350 345 357 0 15 -28 43 -43 43 -6 0 -165 -153 -352 -340 -187
-187 -345 -340 -351 -340 -6 0 -30 21 -53 46 -44 48 -74 55 -95 22 -9 -15 0
-29 57 -86 37 -37 67 -72 67 -78 0 -12 -112 -124 -125 -124 -13 0 -375 362
-375 375 0 13 112 125 124 125 6 0 43 -32 82 -71 56 -56 76 -70 92 -65 40 13
34 36 -24 103 l-57 65 719 719 719 719 45 -61 c59 -81 158 -179 220 -220 l51
-33 -331 -331 c-181 -182 -330 -335 -330 -341 0 -6 9 -19 19 -28 15 -13 24
-15 38 -7 10 5 174 166 364 358 l346 348 87 255 c47 140 86 265 86 278 0 31
-34 62 -67 61 -16 0 -140 -38 -278 -85z m234 -81 c-16 -49 -32 -94 -34 -102
-4 -10 -25 4 -70 49 -36 35 -62 66 -59 69 5 5 172 68 186 70 4 1 -7 -38 -23
-86z m-160 -107 l93 -94 -27 -81 -27 -81 -26 15 c-90 47 -282 258 -258 283 8
7 124 50 141 51 6 1 52 -41 104 -93z m-1802 -2103 c-71 -71 -111 -103 -127
-103 -15 0 -54 31 -121 96 -118 117 -119 108 19 247 l97 97 118 -117 117 -118
-103 -102z"/>
<path d="M1368 1423 c-351 -351 -638 -645 -638 -654 0 -19 20 -39 40 -39 8 0
302 287 653 638 537 537 638 643 635 663 -2 17 -10 25 -28 27 -21 2 -124 -96
-662 -635z"/>
</g>
</svg>
