<?xml version="1.0" standalone="no"?>
<!DOCTYPE svg PUBLIC "-//W3C//DTD SVG 20010904//EN"
 "http://www.w3.org/TR/2001/REC-SVG-20010904/DTD/svg10.dtd">
<svg version="1.0" xmlns="http://www.w3.org/2000/svg"
 width="256.000000pt" height="256.000000pt" viewBox="0 0 256.000000 256.000000"
 preserveAspectRatio="xMidYMid meet">

<g transform="translate(0.000000,256.000000) scale(0.100000,-0.100000)"
fill="#000000" stroke="none">
<path d="M2135 2546 c-16 -8 -75 -59 -129 -114 -88 -89 -103 -100 -127 -95
-23 4 -38 -6 -109 -73 -86 -82 -115 -124 -106 -152 4 -13 -86 -109 -339 -362
-190 -190 -345 -350 -345 -357 0 -15 28 -43 43 -43 6 0 165 153 352 340 187
187 345 340 351 340 6 0 30 -21 53 -46 44 -48 74 -55 95 -22 9 15 0 29 -57 86
-37 37 -67 72 -67 78 0 12 112 124 125 124 13 0 375 -362 375 -375 0 -13 -112
-125 -124 -125 -6 0 -43 32 -82 71 -56 56 -76 70 -92 65 -40 -13 -34 -36 24
-103 l57 -65 -719 -719 -719 -719 -45 61 c-59 81 -158 179 -220 220 l-51 33
331 331 c181 182 330 335 330 341 0 6 -9 19 -19 28 -15 13 -24 15 -38 7 -10
-5 -174 -166 -364 -358 l-346 -348 -89 -261 c-97 -287 -100 -308 -40 -329 24
-8 66 3 291 79 l263 89 749 749 c551 551 752 746 765 742 28 -9 70 20 152 106
67 71 77 86 73 109 -5 24 6 39 95 127 131 130 152 179 109 262 -24 45 -234
254 -278 276 -39 19 -87 20 -128 2z m186 -162 c118 -117 119 -109 -19 -247
l-97 -97 -118 118 -117 118 103 102 c71 69 111 102 127 102 15 0 55 -31 121
-96z m-1983 -1927 c86 -72 194 -210 176 -226 -5 -5 -40 -19 -78 -31 l-68 -22
-95 95 -95 95 27 81 27 81 26 -15 c15 -7 51 -34 80 -58z m-66 -308 c-4 -3 -42
-18 -85 -33 -43 -15 -84 -29 -92 -32 -13 -5 9 74 50 185 4 10 25 -4 70 -49 36
-35 61 -67 57 -71z"/>
<path d="M1137 1192 c-537 -537 -638 -643 -635 -663 2 -16 11 -25 27 -27 20
-3 126 98 663 635 351 351 638 645 638 653 0 9 -5 21 -12 28 -7 7 -19 12 -28
12 -8 0 -302 -287 -653 -638z"/>
</g>
</svg>
